<svg width="80" height="80" viewBox="0 0 80 80" fill="none" xmlns="http://www.w3.org/2000/svg">
<g clip-path="url(#clip0_229_1296)">
<path d="M1.66675 75.1666H78.3334" stroke="white" stroke-width="2" stroke-miterlimit="10"/>
<path d="M78.3334 62.3666H40.0001L27.2334 49.6" stroke="white" stroke-width="2" stroke-miterlimit="10"/>
<path d="M43.2 75.1667V62.3667" stroke="white" stroke-width="2" stroke-miterlimit="10"/>
<path d="M68.7666 75.1667V62.3667" stroke="white" stroke-width="2" stroke-miterlimit="10"/>
<path d="M27.4 28.2333L10.1333 75.7666" stroke="white" stroke-width="2" stroke-miterlimit="10"/>
<path d="M33.994 6.26347L36.5625 7.19832C42.1948 9.2577 46.7795 13.4682 49.31 18.9051C51.8404 24.3421 52.1096 30.5611 50.0585 36.1964L49.9673 36.4469L4.86207 20.03L4.95327 19.7794C5.9708 16.9837 7.5295 14.4161 9.54023 12.2234C11.551 10.0307 13.9742 8.25595 16.6715 7.00062C19.3687 5.74529 22.287 5.03404 25.2594 4.90755C28.2317 4.78106 31.1999 5.24182 33.994 6.26347Z" stroke="white" stroke-width="2" stroke-miterlimit="10"/>
</g>
<defs>
<clipPath id="clip0_229_1296">
<rect width="80" height="80" fill="white"/>
</clipPath>
</defs>
</svg>
