<svg width="187" height="67" viewBox="0 0 187 67" fill="none" xmlns="http://www.w3.org/2000/svg">
<path d="M184.168 65.9565V44.6309" stroke="black"/>
<line y1="-0.5" x2="185.518" y2="-0.5" transform="matrix(-0.999972 0.00742882 -0.00706804 -0.999975 185.513 64.6218)" stroke="black"/>
<path d="M1.34375 65.9565L1.34375 46.873" stroke="black"/>
<line y1="-0.5" x2="185.518" y2="-0.5" transform="matrix(0.999972 -0.00742882 0.00706804 0.999975 1 3.02124)" stroke="black"/>
<path d="M43.0767 43L37.4688 35.5597H36.2074V43H32.517V25.5455H36.2074V32.517H36.9489L42.7443 25.5455H47.3381L40.5284 33.642L47.6534 43H43.0767ZM54.3949 43.2557C53.071 43.2557 51.9261 42.9744 50.9602 42.4119C50 41.8437 49.2585 41.054 48.7358 40.0426C48.2131 39.0256 47.9517 37.8466 47.9517 36.5057C47.9517 35.1534 48.2131 33.9716 48.7358 32.9602C49.2585 31.9432 50 31.1534 50.9602 30.5909C51.9261 30.0227 53.071 29.7386 54.3949 29.7386C55.7188 29.7386 56.8608 30.0227 57.821 30.5909C58.7869 31.1534 59.5312 31.9432 60.054 32.9602C60.5767 33.9716 60.8381 35.1534 60.8381 36.5057C60.8381 37.8466 60.5767 39.0256 60.054 40.0426C59.5312 41.054 58.7869 41.8437 57.821 42.4119C56.8608 42.9744 55.7188 43.2557 54.3949 43.2557ZM54.4119 40.4432C55.0142 40.4432 55.517 40.2727 55.9205 39.9318C56.3239 39.5852 56.6278 39.1136 56.8324 38.517C57.0426 37.9205 57.1477 37.2415 57.1477 36.4801C57.1477 35.7188 57.0426 35.0398 56.8324 34.4432C56.6278 33.8466 56.3239 33.375 55.9205 33.0284C55.517 32.6818 55.0142 32.5085 54.4119 32.5085C53.804 32.5085 53.2926 32.6818 52.8778 33.0284C52.4688 33.375 52.1591 33.8466 51.9489 34.4432C51.7443 35.0398 51.642 35.7188 51.642 36.4801C51.642 37.2415 51.7443 37.9205 51.9489 38.517C52.1591 39.1136 52.4688 39.5852 52.8778 39.9318C53.2926 40.2727 53.804 40.4432 54.4119 40.4432ZM62.1761 46.8352V40.1193H63.1818C63.4716 39.9375 63.7045 39.6477 63.8807 39.25C64.0625 38.8523 64.2102 38.3835 64.3239 37.8438C64.4432 37.304 64.5341 36.7216 64.5966 36.0966C64.6648 35.4659 64.7244 34.8295 64.7756 34.1875L65.1165 29.9091H75.1562V40.1193H77.1847V46.8352H73.7244V43H65.7216V46.8352H62.1761ZM66.7955 40.1193H71.7301V32.7045H68.2017L68.0653 34.1875C67.9688 35.5852 67.8295 36.7727 67.6477 37.75C67.4659 38.7216 67.1818 39.5114 66.7955 40.1193ZM85.2663 43.2557C83.9197 43.2557 82.7607 42.983 81.7891 42.4375C80.8232 41.8864 80.0788 41.108 79.5561 40.1023C79.0334 39.0909 78.772 37.8949 78.772 36.5142C78.772 35.1676 79.0334 33.9858 79.5561 32.9688C80.0788 31.9517 80.8146 31.1591 81.7635 30.5909C82.718 30.0227 83.8374 29.7386 85.1214 29.7386C85.9851 29.7386 86.7891 29.8778 87.5334 30.1562C88.2834 30.429 88.9368 30.8409 89.4936 31.392C90.0561 31.9432 90.4936 32.6364 90.8061 33.4716C91.1186 34.3011 91.2749 35.2727 91.2749 36.3864V37.3835H80.2209V35.1335H87.8572C87.8572 34.6108 87.7436 34.1477 87.5163 33.7443C87.2891 33.3409 86.9737 33.0256 86.5703 32.7983C86.1726 32.5653 85.7095 32.4489 85.1811 32.4489C84.63 32.4489 84.1413 32.5767 83.7152 32.8324C83.2947 33.0824 82.9652 33.4205 82.7266 33.8466C82.4879 34.267 82.3658 34.7358 82.3601 35.2528V37.392C82.3601 38.0398 82.4794 38.5994 82.718 39.071C82.9624 39.5426 83.3061 39.9062 83.7493 40.1619C84.1925 40.4176 84.718 40.5455 85.326 40.5455C85.7294 40.5455 86.0987 40.4886 86.4339 40.375C86.7692 40.2614 87.0561 40.0909 87.2947 39.8636C87.5334 39.6364 87.7152 39.358 87.8402 39.0284L91.1982 39.25C91.0277 40.0568 90.6783 40.7614 90.1499 41.3636C89.6271 41.9602 88.951 42.4261 88.1214 42.7614C87.2976 43.0909 86.3459 43.2557 85.2663 43.2557ZM101.383 38.9858L104.928 29.9091H107.69L102.585 43H100.173L95.1868 29.9091H97.9396L101.383 38.9858ZM97.1129 29.9091V43H93.6442V29.9091H97.1129ZM105.832 43V29.9091H109.258V43H105.832ZM115.799 43.2472C114.964 43.2472 114.219 43.1023 113.566 42.8125C112.913 42.517 112.396 42.0824 112.015 41.5085C111.64 40.929 111.452 40.2074 111.452 39.3438C111.452 38.6165 111.586 38.0057 111.853 37.5114C112.12 37.017 112.484 36.6193 112.944 36.3182C113.404 36.017 113.927 35.7898 114.512 35.6364C115.103 35.483 115.722 35.375 116.37 35.3125C117.131 35.233 117.745 35.1591 118.211 35.0909C118.677 35.017 119.015 34.9091 119.225 34.767C119.435 34.625 119.54 34.4148 119.54 34.1364V34.0852C119.54 33.5455 119.37 33.1278 119.029 32.8324C118.694 32.5369 118.217 32.3892 117.597 32.3892C116.944 32.3892 116.424 32.5341 116.038 32.8239C115.651 33.108 115.396 33.4659 115.271 33.8977L111.913 33.625C112.083 32.8295 112.418 32.142 112.918 31.5625C113.418 30.9773 114.063 30.5284 114.853 30.2159C115.648 29.8977 116.569 29.7386 117.614 29.7386C118.342 29.7386 119.038 29.8239 119.702 29.9943C120.373 30.1648 120.967 30.429 121.484 30.7869C122.006 31.1449 122.418 31.6051 122.719 32.1676C123.021 32.7244 123.171 33.392 123.171 34.1705V43H119.728V41.1847H119.626C119.415 41.5938 119.134 41.9545 118.782 42.267C118.43 42.5739 118.006 42.8153 117.512 42.9915C117.018 43.1619 116.447 43.2472 115.799 43.2472ZM116.839 40.7415C117.373 40.7415 117.844 40.6364 118.254 40.4261C118.663 40.2102 118.984 39.9205 119.217 39.5568C119.45 39.1932 119.566 38.7812 119.566 38.321V36.9318C119.452 37.0057 119.296 37.0739 119.097 37.1364C118.904 37.1932 118.685 37.2472 118.441 37.2983C118.197 37.3437 117.952 37.3864 117.708 37.4261C117.464 37.4602 117.242 37.4915 117.043 37.5199C116.617 37.5824 116.245 37.6818 115.927 37.8182C115.609 37.9545 115.362 38.1392 115.185 38.3722C115.009 38.5994 114.921 38.8835 114.921 39.2244C114.921 39.7188 115.1 40.0966 115.458 40.358C115.822 40.6136 116.282 40.7415 116.839 40.7415ZM135.099 35.0057V37.8608H128.263V35.0057H135.099ZM129.457 29.9091V43H125.988V29.9091H129.457ZM137.374 29.9091V43H133.931V29.9091H137.374ZM143.66 38.2102L148.373 29.9091H151.952V43H148.492V34.6733L143.796 43H140.191V29.9091H143.66V38.2102ZM162.533 43V32.7557H160.079C159.414 32.7557 158.908 32.9091 158.562 33.2159C158.215 33.5227 158.045 33.8864 158.05 34.3068C158.045 34.733 158.21 35.0937 158.545 35.3892C158.886 35.679 159.386 35.8239 160.045 35.8239H163.744V38.2784H160.045C158.925 38.2784 157.957 38.108 157.138 37.767C156.32 37.4261 155.69 36.9517 155.246 36.3438C154.803 35.7301 154.585 35.017 154.59 34.2045C154.585 33.3523 154.803 32.6051 155.246 31.9631C155.69 31.3153 156.323 30.8125 157.147 30.4545C157.977 30.0909 158.954 29.9091 160.079 29.9091H165.917V43H162.533ZM154.215 43L157.854 36.1818H161.323L157.692 43H154.215Z" fill="black"/>
</svg>
