<svg width="250" height="250" viewBox="0 0 250 250" fill="none" xmlns="http://www.w3.org/2000/svg">
<path d="M35.5208 135.417H15.625V105.104C15.655 99.2152 17.4297 93.4673 20.7248 88.5865C24.0199 83.7056 28.6877 79.9109 34.1384 77.6816C39.5891 75.4522 45.5782 74.8883 51.3493 76.0611C57.1203 77.2339 62.4143 80.0908 66.5625 84.2708C68.2448 85.9219 69.7145 87.7765 70.9375 89.7916" stroke="white" stroke-width="2" stroke-miterlimit="10"/>
<path d="M45.4168 55.4167C56.405 55.4167 65.3127 46.509 65.3127 35.5208C65.3127 24.5327 56.405 15.625 45.4168 15.625C34.4287 15.625 25.521 24.5327 25.521 35.5208C25.521 46.509 34.4287 55.4167 45.4168 55.4167Z" stroke="white" stroke-width="2" stroke-miterlimit="10"/>
<path d="M144.896 135H85.2085L95.2085 85.2084H154.792L144.896 135Z" stroke="white" stroke-width="2" stroke-miterlimit="10"/>
<path d="M95.2082 134.896H45.4165" stroke="white" stroke-width="2" stroke-miterlimit="10"/>
<path d="M179.062 189.063C180.311 187.033 181.778 185.147 183.438 183.438C187.586 179.258 192.88 176.401 198.651 175.228C204.422 174.055 210.411 174.619 215.862 176.848C221.312 179.078 225.98 182.872 229.275 187.753C232.57 192.634 234.345 198.382 234.375 204.271V234.375H214.479" stroke="white" stroke-width="2" stroke-miterlimit="10"/>
<path d="M204.583 154.792C215.571 154.792 224.479 145.884 224.479 134.896C224.479 123.908 215.571 115 204.583 115C193.595 115 184.688 123.908 184.688 134.896C184.688 145.884 193.595 154.792 204.583 154.792Z" stroke="white" stroke-width="2" stroke-miterlimit="10"/>
<path d="M105.104 234.375H164.792L154.792 184.688H95.2085L105.104 234.375Z" stroke="white" stroke-width="2" stroke-miterlimit="10"/>
<path d="M154.792 234.375H204.583" stroke="white" stroke-width="2" stroke-miterlimit="10"/>
</svg>
