<svg width="13" height="13" viewBox="0 0 13 13" fill="none" xmlns="http://www.w3.org/2000/svg">
<g clip-path="url(#clip0_449_607)">
<path d="M6.49996 9.42498C4.95925 9.42498 3.71207 8.23243 3.5973 6.72118L1.46652 5.07445C1.18641 5.42586 0.928644 5.79737 0.720644 6.20362C0.674177 6.29554 0.649967 6.39709 0.649967 6.50008C0.649967 6.60308 0.674177 6.70463 0.720644 6.79654C1.82219 8.94581 4.00294 10.4 6.49996 10.4C7.04657 10.4 7.57388 10.3187 8.0821 10.1875L7.02808 9.37197C6.85401 9.40559 6.67724 9.42334 6.49996 9.42498ZM12.8744 10.6051L10.6289 8.86964C11.311 8.29477 11.872 7.59001 12.2793 6.79634C12.3257 6.70442 12.3499 6.60287 12.3499 6.49988C12.3499 6.39689 12.3257 6.29533 12.2793 6.20342C11.1777 4.05415 8.99697 2.59998 6.49996 2.59998C5.45417 2.60125 4.42536 2.86452 3.50752 3.36576L0.923362 1.36843C0.889664 1.34221 0.85113 1.32289 0.80996 1.31156C0.768791 1.30024 0.725794 1.29714 0.683426 1.30244C0.641058 1.30774 0.60015 1.32134 0.563039 1.34246C0.525929 1.36357 0.493343 1.3918 0.467144 1.42551L0.0684092 1.93881C0.0155151 2.00685 -0.00818635 2.09312 0.00251755 2.17864C0.0132215 2.26415 0.0574542 2.34192 0.125487 2.39482L12.0766 11.6315C12.1102 11.6577 12.1488 11.6771 12.19 11.6884C12.2311 11.6997 12.2741 11.7028 12.3165 11.6975C12.3589 11.6922 12.3998 11.6786 12.4369 11.6575C12.474 11.6364 12.5066 11.6082 12.5328 11.5744L12.9317 11.0612C12.9846 10.9931 13.0082 10.9068 12.9975 10.8213C12.9868 10.7358 12.9425 10.658 12.8744 10.6051ZM9.14261 7.72076L8.34433 7.10367C8.41156 6.90937 8.44722 6.70556 8.44996 6.49998C8.45392 6.199 8.38724 5.90129 8.25527 5.63076C8.12331 5.36022 7.92973 5.12441 7.6901 4.94226C7.45046 4.76011 7.17145 4.6367 6.87547 4.58194C6.57949 4.52718 6.27479 4.5426 5.98585 4.62696C6.10833 4.79294 6.17459 4.9937 6.17496 5.19998C6.17193 5.26862 6.16144 5.33673 6.14367 5.40311L4.64847 4.24753C5.16786 3.81349 5.82309 3.57548 6.49996 3.57498C6.88413 3.57477 7.26458 3.65028 7.61956 3.7972C7.97453 3.94412 8.29707 4.15956 8.56872 4.43122C8.84037 4.70287 9.05582 5.0254 9.20274 5.38038C9.34966 5.73535 9.42517 6.1158 9.42496 6.49998C9.42496 6.93934 9.3175 7.34884 9.14261 7.72096V7.72076Z" fill="black"/>
</g>
<defs>
<clipPath id="clip0_449_607">
<rect width="13" height="13" fill="white"/>
</clipPath>
</defs>
</svg>
