<svg width="13" height="13" viewBox="0 0 13 13" fill="none" xmlns="http://www.w3.org/2000/svg">
<path d="M12.9214 6.17051C11.6975 3.78243 9.27445 2.16669 6.49999 2.16669C3.72553 2.16669 1.30179 3.78356 0.0785293 6.17073C0.0268999 6.27286 0 6.3857 0 6.50013C0 6.61457 0.0268999 6.72741 0.0785293 6.82953C1.30247 9.21761 3.72553 10.8334 6.49999 10.8334C9.27445 10.8334 11.6982 9.21648 12.9214 6.82931C12.9731 6.72718 13 6.61434 13 6.49991C13 6.38547 12.9731 6.27263 12.9214 6.17051ZM6.49999 9.75002C5.8572 9.75002 5.22884 9.55941 4.69438 9.2023C4.15992 8.84518 3.74336 8.3376 3.49738 7.74374C3.25139 7.14988 3.18703 6.49641 3.31244 5.86598C3.43784 5.23554 3.74737 4.65644 4.20189 4.20192C4.65641 3.7474 5.23551 3.43787 5.86594 3.31247C6.49638 3.18707 7.14985 3.25143 7.74371 3.49741C8.33757 3.7434 8.84515 4.15996 9.20226 4.69442C9.55938 5.22888 9.74999 5.85723 9.74999 6.50002C9.7502 6.92687 9.66627 7.34958 9.50302 7.74399C9.33976 8.13839 9.10038 8.49675 8.79855 8.79858C8.49672 9.10041 8.13836 9.3398 7.74395 9.50305C7.34955 9.66631 6.92684 9.75023 6.49999 9.75002ZM6.49999 4.33335C6.3066 4.33606 6.11445 4.36483 5.92875 4.41889C6.08183 4.62691 6.15528 4.88289 6.1358 5.14042C6.11632 5.39795 6.00519 5.63998 5.82257 5.8226C5.63994 6.00522 5.39792 6.11635 5.14039 6.13583C4.88286 6.15531 4.62688 6.08186 4.41886 5.92879C4.30041 6.36519 4.32179 6.82775 4.48 7.25136C4.6382 7.67497 4.92527 8.0383 5.30078 8.29022C5.6763 8.54214 6.12137 8.66995 6.57333 8.65567C7.0253 8.64139 7.4614 8.48574 7.82027 8.21063C8.17914 7.93551 8.4427 7.55478 8.57385 7.12203C8.70501 6.68928 8.69715 6.22629 8.55139 5.79824C8.40563 5.37019 8.12931 4.99862 7.76131 4.73584C7.39331 4.47305 6.95218 4.33229 6.49999 4.33335Z" fill="black"/>
</svg>
