<svg width="40" height="40" viewBox="0 0 40 40" fill="none" xmlns="http://www.w3.org/2000/svg">
<path d="M26.3331 10.4667C26.3332 11.3125 25.9983 12.1239 25.4018 12.7235C24.8053 13.3232 23.9956 13.6623 23.1498 13.6667H19.9998C19.1555 13.6667 18.3458 14.002 17.7488 14.599C17.1519 15.196 16.8165 16.0057 16.8165 16.85V20H8.7998V7.28333H23.1498C23.9927 7.2877 24.7999 7.6245 25.3959 8.22054C25.992 8.81658 26.3288 9.62374 26.3331 10.4667Z" stroke="white" stroke-width="2" stroke-miterlimit="10"/>
<path d="M32.7169 26.4167L35.9002 32.7833H20.0002C19.1573 32.779 18.3502 32.4422 17.7541 31.8461C17.1581 31.2501 16.8213 30.4429 16.8169 29.6V16.85C16.83 17.6871 17.1706 18.4858 17.7657 19.0747C18.3608 19.6635 19.163 19.9957 20.0002 20H35.9336L32.7169 26.4167Z" stroke="white" stroke-width="2" stroke-miterlimit="10"/>
<path d="M26.3336 10.4667V20H20.0002C19.1573 19.9956 18.3502 19.6588 17.7541 19.0628C17.1581 18.4667 16.8213 17.6596 16.8169 16.8167C16.8257 15.9782 17.1649 15.177 17.761 14.5872C18.357 13.9974 19.1617 13.6666 20.0002 13.6667H23.1836C24.0236 13.6535 24.8247 13.3106 25.414 12.7119C26.0034 12.1132 26.3337 11.3068 26.3336 10.4667Z" stroke="white" stroke-width="2" stroke-miterlimit="10"/>
<path d="M2.43311 39.1667V5.68333C2.43311 4.83906 2.76849 4.02937 3.36548 3.43238C3.96247 2.83539 4.77217 2.5 5.61644 2.5C6.03448 2.5 6.44843 2.58234 6.83465 2.74232C7.22087 2.90229 7.5718 3.13678 7.8674 3.43238C8.16299 3.72798 8.39748 4.0789 8.55745 4.46512C8.71743 4.85134 8.79977 5.26529 8.79977 5.68333V39.1667" stroke="white" stroke-width="2" stroke-miterlimit="10"/>
</svg>
