<svg width="143" height="53" viewBox="0 0 143 53" fill="none" xmlns="http://www.w3.org/2000/svg">
<line x1="37.5" y1="2" x2="37.5" y2="10" stroke="white"/>
<line y1="-0.5" x2="69.0018" y2="-0.5" transform="matrix(0.999972 -0.0074926 0.00700788 0.999975 37 2.5)" stroke="white"/>
<path d="M105.5 1V8.15891" stroke="white"/>
<path d="M12.0767 33L6.46875 25.5597H5.20739V33H1.51705V15.5455H5.20739V22.517H5.94886L11.7443 15.5455H16.3381L9.52841 23.642L16.6534 33H12.0767ZM23.3949 33.2557C22.071 33.2557 20.9261 32.9744 19.9602 32.4119C19 31.8437 18.2585 31.054 17.7358 30.0426C17.2131 29.0256 16.9517 27.8466 16.9517 26.5057C16.9517 25.1534 17.2131 23.9716 17.7358 22.9602C18.2585 21.9432 19 21.1534 19.9602 20.5909C20.9261 20.0227 22.071 19.7386 23.3949 19.7386C24.7188 19.7386 25.8608 20.0227 26.821 20.5909C27.7869 21.1534 28.5312 21.9432 29.054 22.9602C29.5767 23.9716 29.8381 25.1534 29.8381 26.5057C29.8381 27.8466 29.5767 29.0256 29.054 30.0426C28.5312 31.054 27.7869 31.8437 26.821 32.4119C25.8608 32.9744 24.7188 33.2557 23.3949 33.2557ZM23.4119 30.4432C24.0142 30.4432 24.517 30.2727 24.9205 29.9318C25.3239 29.5852 25.6278 29.1136 25.8324 28.517C26.0426 27.9205 26.1477 27.2415 26.1477 26.4801C26.1477 25.7188 26.0426 25.0398 25.8324 24.4432C25.6278 23.8466 25.3239 23.375 24.9205 23.0284C24.517 22.6818 24.0142 22.5085 23.4119 22.5085C22.804 22.5085 22.2926 22.6818 21.8778 23.0284C21.4688 23.375 21.1591 23.8466 20.9489 24.4432C20.7443 25.0398 20.642 25.7188 20.642 26.4801C20.642 27.2415 20.7443 27.9205 20.9489 28.517C21.1591 29.1136 21.4688 29.5852 21.8778 29.9318C22.2926 30.2727 22.804 30.4432 23.4119 30.4432ZM31.1761 36.8352V30.1193H32.1818C32.4716 29.9375 32.7045 29.6477 32.8807 29.25C33.0625 28.8523 33.2102 28.3835 33.3239 27.8438C33.4432 27.304 33.5341 26.7216 33.5966 26.0966C33.6648 25.4659 33.7244 24.8295 33.7756 24.1875L34.1165 19.9091H44.1562V30.1193H46.1847V36.8352H42.7244V33H34.7216V36.8352H31.1761ZM35.7955 30.1193H40.7301V22.7045H37.2017L37.0653 24.1875C36.9688 25.5852 36.8295 26.7727 36.6477 27.75C36.4659 28.7216 36.1818 29.5114 35.7955 30.1193ZM54.2663 33.2557C52.9197 33.2557 51.7607 32.983 50.7891 32.4375C49.8232 31.8864 49.0788 31.108 48.5561 30.1023C48.0334 29.0909 47.772 27.8949 47.772 26.5142C47.772 25.1676 48.0334 23.9858 48.5561 22.9688C49.0788 21.9517 49.8146 21.1591 50.7635 20.5909C51.718 20.0227 52.8374 19.7386 54.1214 19.7386C54.9851 19.7386 55.7891 19.8778 56.5334 20.1562C57.2834 20.429 57.9368 20.8409 58.4936 21.392C59.0561 21.9432 59.4936 22.6364 59.8061 23.4716C60.1186 24.3011 60.2749 25.2727 60.2749 26.3864V27.3835H49.2209V25.1335H56.8572C56.8572 24.6108 56.7436 24.1477 56.5163 23.7443C56.2891 23.3409 55.9737 23.0256 55.5703 22.7983C55.1726 22.5653 54.7095 22.4489 54.1811 22.4489C53.63 22.4489 53.1413 22.5767 52.7152 22.8324C52.2947 23.0824 51.9652 23.4205 51.7266 23.8466C51.4879 24.267 51.3658 24.7358 51.3601 25.2528V27.392C51.3601 28.0398 51.4794 28.5994 51.718 29.071C51.9624 29.5426 52.3061 29.9062 52.7493 30.1619C53.1925 30.4176 53.718 30.5455 54.326 30.5455C54.7294 30.5455 55.0987 30.4886 55.4339 30.375C55.7692 30.2614 56.0561 30.0909 56.2947 29.8636C56.5334 29.6364 56.7152 29.358 56.8402 29.0284L60.1982 29.25C60.0277 30.0568 59.6783 30.7614 59.1499 31.3636C58.6271 31.9602 57.951 32.4261 57.1214 32.7614C56.2976 33.0909 55.3459 33.2557 54.2663 33.2557ZM70.3828 28.9858L73.9283 19.9091H76.6896L71.5845 33H69.1726L64.1868 19.9091H66.9396L70.3828 28.9858ZM66.1129 19.9091V33H62.6442V19.9091H66.1129ZM74.8317 33V19.9091H78.2578V33H74.8317ZM84.799 33.2472C83.9638 33.2472 83.2195 33.1023 82.5661 32.8125C81.9126 32.517 81.3956 32.0824 81.0149 31.5085C80.6399 30.929 80.4524 30.2074 80.4524 29.3438C80.4524 28.6165 80.5859 28.0057 80.853 27.5114C81.12 27.017 81.4837 26.6193 81.9439 26.3182C82.4041 26.017 82.9268 25.7898 83.5121 25.6364C84.103 25.483 84.7223 25.375 85.37 25.3125C86.1314 25.233 86.745 25.1591 87.2109 25.0909C87.6768 25.017 88.0149 24.9091 88.2251 24.767C88.4354 24.625 88.5405 24.4148 88.5405 24.1364V24.0852C88.5405 23.5455 88.37 23.1278 88.0291 22.8324C87.6939 22.5369 87.2166 22.3892 86.5973 22.3892C85.9439 22.3892 85.424 22.5341 85.0376 22.8239C84.6513 23.108 84.3956 23.4659 84.2706 23.8977L80.9126 23.625C81.0831 22.8295 81.4183 22.142 81.9183 21.5625C82.4183 20.9773 83.0632 20.5284 83.853 20.2159C84.6484 19.8977 85.5689 19.7386 86.6143 19.7386C87.3416 19.7386 88.0376 19.8239 88.7024 19.9943C89.3729 20.1648 89.9666 20.429 90.4837 20.7869C91.0064 21.1449 91.4183 21.6051 91.7195 22.1676C92.0206 22.7244 92.1712 23.392 92.1712 24.1705V33H88.728V31.1847H88.6257C88.4155 31.5938 88.1342 31.9545 87.782 32.267C87.4297 32.5739 87.0064 32.8153 86.5121 32.9915C86.0178 33.1619 85.4467 33.2472 84.799 33.2472ZM85.8388 30.7415C86.3729 30.7415 86.8445 30.6364 87.2536 30.4261C87.6626 30.2102 87.9837 29.9205 88.2166 29.5568C88.4496 29.1932 88.5661 28.7812 88.5661 28.321V26.9318C88.4524 27.0057 88.2962 27.0739 88.0973 27.1364C87.9041 27.1932 87.6854 27.2472 87.4411 27.2983C87.1967 27.3437 86.9524 27.3864 86.7081 27.4261C86.4638 27.4602 86.2422 27.4915 86.0433 27.5199C85.6172 27.5824 85.245 27.6818 84.9268 27.8182C84.6087 27.9545 84.3615 28.1392 84.1854 28.3722C84.0092 28.5994 83.9212 28.8835 83.9212 29.2244C83.9212 29.7188 84.1001 30.0966 84.4581 30.358C84.8217 30.6136 85.282 30.7415 85.8388 30.7415ZM104.099 25.0057V27.8608H97.2635V25.0057H104.099ZM98.4567 19.9091V33H94.9879V19.9091H98.4567ZM106.374 19.9091V33H102.931V19.9091H106.374ZM112.66 28.2102L117.373 19.9091H120.952V33H117.492V24.6733L112.796 33H109.191V19.9091H112.66V28.2102ZM131.533 33V22.7557H129.079C128.414 22.7557 127.908 22.9091 127.562 23.2159C127.215 23.5227 127.045 23.8864 127.05 24.3068C127.045 24.733 127.21 25.0937 127.545 25.3892C127.886 25.679 128.386 25.8239 129.045 25.8239H132.744V28.2784H129.045C127.925 28.2784 126.957 28.108 126.138 27.767C125.32 27.4261 124.69 26.9517 124.246 26.3438C123.803 25.7301 123.585 25.017 123.59 24.2045C123.585 23.3523 123.803 22.6051 124.246 21.9631C124.69 21.3153 125.323 20.8125 126.147 20.4545C126.977 20.0909 127.954 19.9091 129.079 19.9091H134.917V33H131.533ZM123.215 33L126.854 26.1818H130.323L126.692 33H123.215Z" fill="white"/>
<path d="M101.5 51V43" stroke="white"/>
<line y1="-0.5" x2="69.0018" y2="-0.5" transform="matrix(-0.999972 0.0074926 -0.00700788 -0.999975 102 50.4993)" stroke="white"/>
<path d="M33.5001 51V43.8411" stroke="white"/>
</svg>
