<svg width="21" height="20" viewBox="0 0 21 20" fill="none" xmlns="http://www.w3.org/2000/svg">
<g clip-path="url(#clip0_262_1270)">
<path d="M5.9535 1.38671C5.90995 1.34301 5.8582 1.30834 5.80122 1.28468C5.74425 1.26102 5.68316 1.24884 5.62146 1.24884C5.55977 1.24884 5.49868 1.26102 5.4417 1.28468C5.38473 1.30834 5.33298 1.34301 5.28943 1.38671L2.80193 3.85976L1.91521 2.99569C1.87166 2.95199 1.81992 2.91732 1.76294 2.89366C1.70596 2.87 1.64488 2.85782 1.58318 2.85782C1.52149 2.85782 1.4604 2.87 1.40342 2.89366C1.34645 2.91732 1.2947 2.95199 1.25115 2.99569L0.63787 3.60976C0.59417 3.65331 0.559496 3.70505 0.535837 3.76203C0.512179 3.81901 0.5 3.88009 0.5 3.94179C0.5 4.00348 0.512179 4.06457 0.535837 4.12155C0.559496 4.17852 0.59417 4.23027 0.63787 4.27382L2.49685 6.12538C2.58964 6.21359 2.71278 6.26277 2.8408 6.26277C2.96882 6.26277 3.09195 6.21359 3.18474 6.12538L3.79373 5.51523L6.61404 2.6953C6.70192 2.60736 6.75157 2.48831 6.75223 2.36399C6.75288 2.23968 6.70449 2.12011 6.61756 2.03124L5.9535 1.38671ZM5.9535 7.60507C5.90995 7.56137 5.8582 7.5267 5.80122 7.50304C5.74425 7.47938 5.68316 7.4672 5.62146 7.4672C5.55977 7.4672 5.49868 7.47938 5.4417 7.50304C5.38473 7.5267 5.33298 7.56137 5.28943 7.60507L2.80193 10.0941L1.91521 9.23085C1.87166 9.18715 1.81992 9.15248 1.76294 9.12882C1.70596 9.10516 1.64488 9.09298 1.58318 9.09298C1.52149 9.09298 1.4604 9.10516 1.40342 9.12882C1.34645 9.15248 1.2947 9.18715 1.25115 9.23085L0.63787 9.84374C0.59417 9.88729 0.559496 9.93904 0.535837 9.99601C0.512179 10.053 0.5 10.1141 0.5 10.1758C0.5 10.2375 0.512179 10.2986 0.535837 10.3555C0.559496 10.4125 0.59417 10.4643 0.63787 10.5078L2.49217 12.3633C2.58489 12.4515 2.70796 12.5006 2.83592 12.5006C2.96388 12.5006 3.08694 12.4515 3.17967 12.3633L3.79295 11.7504L6.61326 8.92929C6.7008 8.84196 6.75028 8.72358 6.75094 8.59993C6.7516 8.47629 6.70338 8.35739 6.61678 8.26913L5.9535 7.60507ZM2.99998 14.375C1.96521 14.375 1.10193 15.2148 1.10193 16.25C1.10193 17.2851 1.96599 18.125 2.99998 18.125C3.49726 18.125 3.97417 17.9274 4.3258 17.5758C4.67743 17.2242 4.87498 16.7473 4.87498 16.25C4.87498 15.7527 4.67743 15.2758 4.3258 14.9242C3.97417 14.5725 3.49726 14.375 2.99998 14.375ZM19.875 15H8.62498C8.45922 15 8.30025 15.0658 8.18304 15.183C8.06583 15.3003 7.99998 15.4592 7.99998 15.625V16.875C7.99998 17.0408 8.06583 17.1997 8.18304 17.3169C8.30025 17.4341 8.45922 17.5 8.62498 17.5H19.875C20.0407 17.5 20.1997 17.4341 20.3169 17.3169C20.4341 17.1997 20.5 17.0408 20.5 16.875V15.625C20.5 15.4592 20.4341 15.3003 20.3169 15.183C20.1997 15.0658 20.0407 15 19.875 15ZM19.875 2.49999H8.62498C8.45922 2.49999 8.30025 2.56584 8.18304 2.68305C8.06583 2.80026 7.99998 2.95923 7.99998 3.12499V4.37499C7.99998 4.54075 8.06583 4.69972 8.18304 4.81693C8.30025 4.93414 8.45922 4.99999 8.62498 4.99999H19.875C20.0407 4.99999 20.1997 4.93414 20.3169 4.81693C20.4341 4.69972 20.5 4.54075 20.5 4.37499V3.12499C20.5 2.95923 20.4341 2.80026 20.3169 2.68305C20.1997 2.56584 20.0407 2.49999 19.875 2.49999ZM19.875 8.74999H8.62498C8.45922 8.74999 8.30025 8.81584 8.18304 8.93305C8.06583 9.05026 7.99998 9.20923 7.99998 9.37499V10.625C7.99998 10.7908 8.06583 10.9497 8.18304 11.0669C8.30025 11.1841 8.45922 11.25 8.62498 11.25H19.875C20.0407 11.25 20.1997 11.1841 20.3169 11.0669C20.4341 10.9497 20.5 10.7908 20.5 10.625V9.37499C20.5 9.20923 20.4341 9.05026 20.3169 8.93305C20.1997 8.81584 20.0407 8.74999 19.875 8.74999Z" fill="white"/>
</g>
<defs>
<clipPath id="clip0_262_1270">
<rect width="20" height="20" fill="white" transform="translate(0.5)"/>
</clipPath>
</defs>
</svg>
