<svg width="165" height="165" viewBox="0 0 165 165" fill="none" xmlns="http://www.w3.org/2000/svg">
<path d="M23.4438 89.375H10.3125V69.3688C10.3323 65.4821 11.5036 61.6885 13.6784 58.4671C15.8531 55.2458 18.9339 52.7412 22.5313 51.2699C26.1288 49.7985 30.0816 49.4263 33.8905 50.2004C37.6994 50.9744 41.1934 52.8599 43.9312 55.6188C45.0416 56.7085 46.0116 57.9325 46.8187 59.2625" stroke="#171717" stroke-width="2" stroke-miterlimit="10"/>
<path d="M29.975 36.575C37.2272 36.575 43.1063 30.6959 43.1063 23.4438C43.1063 16.1916 37.2272 10.3125 29.975 10.3125C22.7228 10.3125 16.8438 16.1916 16.8438 23.4438C16.8438 30.6959 22.7228 36.575 29.975 36.575Z" stroke="#171717" stroke-width="2" stroke-miterlimit="10"/>
<path d="M95.6311 89.1H56.2373L62.8373 56.2375H102.162L95.6311 89.1Z" stroke="#171717" stroke-width="2" stroke-miterlimit="10"/>
<path d="M62.8376 89.0312H29.9751" stroke="#171717" stroke-width="2" stroke-miterlimit="10"/>
<path d="M118.181 124.781C119.005 123.442 119.973 122.197 121.069 121.069C123.806 118.31 127.301 116.424 131.109 115.65C134.918 114.876 138.871 115.249 142.469 116.72C146.066 118.191 149.147 120.696 151.322 123.917C153.496 127.138 154.668 130.932 154.687 134.819V154.688H141.556" stroke="#171717" stroke-width="2" stroke-miterlimit="10"/>
<path d="M135.025 102.163C142.277 102.163 148.156 96.2835 148.156 89.0313C148.156 81.7791 142.277 75.9 135.025 75.9C127.773 75.9 121.894 81.7791 121.894 89.0313C121.894 96.2835 127.773 102.163 135.025 102.163Z" stroke="#171717" stroke-width="2" stroke-miterlimit="10"/>
<path d="M69.3687 154.687H108.762L102.162 121.894H62.8374L69.3687 154.687Z" stroke="#171717" stroke-width="2" stroke-miterlimit="10"/>
<path d="M102.163 154.688H135.025" stroke="#171717" stroke-width="2" stroke-miterlimit="10"/>
</svg>
